<svg width="20" height="20" viewBox="0 0 20 20" fill="none" xmlns="http://www.w3.org/2000/svg">
<path d="M3.3333 8.33329L2.74413 8.92245L2.15497 8.33329L2.74413 7.74412L3.3333 8.33329ZM17.5 15C17.5 15.221 17.4122 15.4329 17.2559 15.5892C17.0996 15.7455 16.8876 15.8333 16.6666 15.8333C16.4456 15.8333 16.2337 15.7455 16.0774 15.5892C15.9211 15.4329 15.8333 15.221 15.8333 15H17.5ZM6.9108 13.0891L2.74413 8.92245L3.92247 7.74412L8.08913 11.9108L6.9108 13.0891ZM2.74413 7.74412L6.9108 3.57745L8.08913 4.75579L3.92247 8.92245L2.74413 7.74412ZM3.3333 7.49995H11.6666V9.16662H3.3333V7.49995ZM17.5 13.3333V15H15.8333V13.3333H17.5ZM11.6666 7.49995C13.2137 7.49995 14.6975 8.11454 15.7914 9.2085C16.8854 10.3025 17.5 11.7862 17.5 13.3333H15.8333C15.8333 12.2282 15.3943 11.1684 14.6129 10.387C13.8315 9.60561 12.7717 9.16662 11.6666 9.16662V7.49995Z" fill="#EAEAEA"/>
</svg>
