<svg width="20" height="20" viewBox="0 0 20 20" fill="none" xmlns="http://www.w3.org/2000/svg">
<path d="M9.99998 12.9791C9.88887 12.9791 9.7847 12.9619 9.68748 12.9275C9.59026 12.893 9.49998 12.8339 9.41665 12.75L6.41665 9.74998C6.24998 9.58332 6.16998 9.38887 6.17665 9.16665C6.18331 8.94443 6.26331 8.74998 6.41665 8.58332C6.58331 8.41665 6.78137 8.32998 7.01081 8.32332C7.24026 8.31665 7.43804 8.39637 7.60415 8.56248L9.16665 10.125V4.16665C9.16665 3.93054 9.24665 3.73276 9.40665 3.57332C9.56665 3.41387 9.76442 3.33387 9.99998 3.33332C10.2355 3.33276 10.4336 3.41276 10.5941 3.57332C10.7547 3.73387 10.8344 3.93165 10.8333 4.16665V10.125L12.3958 8.56248C12.5625 8.39582 12.7605 8.31582 12.99 8.32248C13.2194 8.32915 13.4172 8.41609 13.5833 8.58332C13.7361 8.74998 13.8161 8.94443 13.8233 9.16665C13.8305 9.38887 13.7505 9.58332 13.5833 9.74998L10.5833 12.75C10.5 12.8333 10.4097 12.8925 10.3125 12.9275C10.2153 12.9625 10.1111 12.9797 9.99998 12.9791ZM4.99998 16.6666C4.54165 16.6666 4.14942 16.5036 3.82331 16.1775C3.4972 15.8514 3.33387 15.4589 3.33331 15V13.3333C3.33331 13.0972 3.41331 12.8994 3.57331 12.74C3.73331 12.5805 3.93109 12.5005 4.16665 12.5C4.4022 12.4994 4.60026 12.5794 4.76081 12.74C4.92137 12.9005 5.00109 13.0983 4.99998 13.3333V15H15V13.3333C15 13.0972 15.08 12.8994 15.24 12.74C15.4 12.5805 15.5978 12.5005 15.8333 12.5C16.0689 12.4994 16.2669 12.5794 16.4275 12.74C16.588 12.9005 16.6678 13.0983 16.6666 13.3333V15C16.6666 15.4583 16.5036 15.8508 16.1775 16.1775C15.8514 16.5041 15.4589 16.6672 15 16.6666H4.99998Z" fill="#EAEAEA"/>
</svg>
