<svg width="20" height="20" viewBox="0 0 20 20" fill="none" xmlns="http://www.w3.org/2000/svg">
<g clip-path="url(#clip0_79_105)">
<path d="M0 19.375C0 19.2057 0.061849 19.0592 0.185547 18.9355L12.0605 7.06055C12.1842 6.93685 12.3307 6.875 12.5 6.875C12.6693 6.875 12.8158 6.93685 12.9395 7.06055C13.0632 7.18424 13.125 7.33073 13.125 7.5C13.125 7.66927 13.0632 7.81576 12.9395 7.93945L1.06445 19.8145C0.940755 19.9382 0.794271 20 0.625 20C0.455729 20 0.309245 19.9382 0.185547 19.8145C0.061849 19.6908 0 19.5443 0 19.375ZM13.75 0H15V2.5H13.75V0ZM11.7285 3.85742L9.95117 2.08984L10.8398 1.20117L12.6074 2.97852L11.7285 3.85742ZM11.25 6.25H8.75V5H11.25V6.25ZM13.75 8.75H15V11.25H13.75V8.75ZM17.0215 7.39258L18.7988 9.16016L17.9102 10.0488L16.1426 8.27148L17.0215 7.39258ZM20 5V6.25H17.5V5H20ZM17.0215 3.85742L16.1426 2.97852L17.9102 1.20117L18.7988 2.08984L17.0215 3.85742ZM14.375 5C14.5443 5 14.6908 5.06185 14.8145 5.18555C14.9382 5.30924 15 5.45573 15 5.625C15 5.79427 14.9382 5.94076 14.8145 6.06445C14.6908 6.18815 14.5443 6.25 14.375 6.25C14.2057 6.25 14.0592 6.18815 13.9355 6.06445C13.8118 5.94076 13.75 5.79427 13.75 5.625C13.75 5.45573 13.8118 5.30924 13.9355 5.18555C14.0592 5.06185 14.2057 5 14.375 5Z" fill="#211C1C"/>
</g>
<defs>
<clipPath id="clip0_79_105">
<rect width="20" height="20" fill="white"/>
</clipPath>
</defs>
</svg>
