<svg width="20" height="20" viewBox="0 0 20 20" fill="none" xmlns="http://www.w3.org/2000/svg">
<path d="M17.5 17.5H6.66664C6.44688 17.5005 6.2292 17.4575 6.02612 17.3736C5.82303 17.2896 5.63856 17.1664 5.4833 17.0108L2.15497 13.6783C1.84252 13.3658 1.66699 12.9419 1.66699 12.5C1.66699 12.0581 1.84252 11.6342 2.15497 11.3217L10.4883 2.98833C10.6431 2.8335 10.8268 2.71067 11.0291 2.62687C11.2313 2.54307 11.4481 2.49994 11.6671 2.49994C11.886 2.49994 12.1028 2.54307 12.305 2.62687C12.5073 2.71067 12.691 2.8335 12.8458 2.98833L17.845 7.98833C18.1574 8.30088 18.3329 8.72473 18.3329 9.16667C18.3329 9.60861 18.1574 10.0325 17.845 10.345L10.695 17.5M4.23497 9.24167L11.5916 16.5983" stroke="#EAEAEA" stroke-width="2" stroke-linecap="round" stroke-linejoin="round"/>
</svg>
