<svg width="20" height="20" viewBox="0 0 20 20" fill="none" xmlns="http://www.w3.org/2000/svg">
<path d="M6.40889 10.5542L10.8533 14.9986C10.9358 15.0811 11.0338 15.1466 11.1415 15.1912C11.2493 15.2359 11.3648 15.2588 11.4815 15.2588C11.5981 15.2588 11.7137 15.2359 11.8214 15.1912C11.9292 15.1466 12.0271 15.0811 12.1096 14.9986C12.1921 14.9162 12.2576 14.8182 12.3022 14.7104C12.3468 14.6027 12.3698 14.4872 12.3698 14.3705C12.3698 14.2538 12.3468 14.1383 12.3022 14.0305C12.2576 13.9228 12.1921 13.8248 12.1096 13.7423L9.18341 10.8149H17.1111C17.3469 10.8149 17.573 10.7213 17.7397 10.5546C17.9063 10.3879 18 10.1618 18 9.92605C18 9.6903 17.9063 9.46421 17.7397 9.29751C17.573 9.13081 17.3469 9.03716 17.1111 9.03716H9.18341L12.1096 6.10975C12.1921 6.02726 12.2576 5.92933 12.3022 5.82155C12.3468 5.71378 12.3698 5.59826 12.3698 5.4816C12.3698 5.246 12.2762 5.02005 12.1096 4.85346C11.943 4.68686 11.7171 4.59327 11.4815 4.59327C11.2459 4.59327 11.0199 4.68686 10.8533 4.85346L6.40889 9.2979C6.24243 9.46457 6.14893 9.69049 6.14893 9.92605C6.14893 10.1616 6.24243 10.3875 6.40889 10.5542ZM3.77778 14.9631V4.88901C3.77778 4.65326 3.68413 4.42717 3.51743 4.26047C3.35073 4.09377 3.12464 4.00012 2.88889 4.00012C2.65314 4.00012 2.42705 4.09377 2.26035 4.26047C2.09365 4.42717 2 4.65326 2 4.88901V14.9631C2 15.1988 2.09365 15.4249 2.26035 15.5916C2.42705 15.7583 2.65314 15.852 2.88889 15.852C3.12464 15.852 3.35073 15.7583 3.51743 15.5916C3.68413 15.4249 3.77778 15.1988 3.77778 14.9631Z" fill="#EAEAEA"/>
</svg>
