<svg width="20" height="20" viewBox="0 0 20 20" fill="none" xmlns="http://www.w3.org/2000/svg">
<path d="M16.6667 8.33329L17.2559 8.92245L17.845 8.33329L17.2559 7.74412L16.6667 8.33329ZM2.50003 15C2.50003 15.221 2.58783 15.4329 2.74411 15.5892C2.90039 15.7455 3.11235 15.8333 3.33337 15.8333C3.55438 15.8333 3.76634 15.7455 3.92262 15.5892C4.0789 15.4329 4.1667 15.221 4.1667 15H2.50003ZM13.0892 13.0891L17.2559 8.92245L16.0775 7.74412L11.9109 11.9108L13.0892 13.0891ZM17.2559 7.74412L13.0892 3.57745L11.9109 4.75579L16.0775 8.92245L17.2559 7.74412ZM16.6667 7.49995H8.33337V9.16662H16.6667V7.49995ZM2.50003 13.3333V15H4.1667V13.3333H2.50003ZM8.33337 7.49995C6.78627 7.49995 5.30254 8.11454 4.20858 9.2085C3.11461 10.3025 2.50003 11.7862 2.50003 13.3333H4.1667C4.1667 12.2282 4.60569 11.1684 5.38709 10.387C6.16849 9.60561 7.2283 9.16662 8.33337 9.16662V7.49995Z" fill="#EAEAEA"/>
</svg>
