<svg width="20" height="20" viewBox="0 0 20 20" fill="none" xmlns="http://www.w3.org/2000/svg">
<path d="M9.99999 3.33329C9.88888 3.33329 9.78471 3.35051 9.68749 3.38496C9.59026 3.4194 9.49999 3.47857 9.41665 3.56246L6.41665 6.56246C6.24999 6.72912 6.16999 6.92357 6.17665 7.14579C6.18332 7.36801 6.26332 7.56246 6.41665 7.72912C6.58332 7.89579 6.78138 7.98246 7.01082 7.98912C7.24027 7.99579 7.43804 7.91607 7.60415 7.74996L9.16665 6.18746V12.1458C9.16665 12.3819 9.24665 12.5797 9.40665 12.7391C9.56665 12.8986 9.76443 12.9786 9.99999 12.9791C10.2355 12.9797 10.4336 12.8997 10.5942 12.7391C10.7547 12.5786 10.8344 12.3808 10.8333 12.1458V6.18746L12.3958 7.74996C12.5625 7.91662 12.7605 7.99662 12.99 7.98996C13.2194 7.98329 13.4172 7.89635 13.5833 7.72912C13.7361 7.56246 13.8161 7.36801 13.8233 7.14579C13.8305 6.92357 13.7505 6.72912 13.5833 6.56246L10.5833 3.56246C10.5 3.47912 10.4097 3.41996 10.3125 3.38496C10.2153 3.34996 10.1111 3.33273 9.99999 3.33329Z" fill="#EAEAEA"/>
<path d="M4.99998 16.6667C4.54165 16.6667 4.14942 16.5036 3.82331 16.1775C3.4972 15.8514 3.33387 15.4589 3.33331 15V13.3333C3.33331 13.0972 3.41331 12.8994 3.57331 12.74C3.73331 12.5806 3.93109 12.5006 4.16665 12.5C4.4022 12.4994 4.60026 12.5794 4.76081 12.74C4.92137 12.9006 5.00109 13.0983 4.99998 13.3333V15H15V13.3333C15 13.0972 15.08 12.8994 15.24 12.74C15.4 12.5806 15.5978 12.5006 15.8333 12.5C16.0689 12.4994 16.2669 12.5794 16.4275 12.74C16.588 12.9006 16.6678 13.0983 16.6666 13.3333V15C16.6666 15.4583 16.5036 15.8508 16.1775 16.1775C15.8514 16.5042 15.4589 16.6672 15 16.6667H4.99998Z" fill="#EAEAEA"/>
</svg>
