<?xml version="1.0" encoding="UTF-8"?>
<!DOCTYPE svg PUBLIC "-//W3C//DTD SVG 1.1//EN" "http://www.w3.org/Graphics/SVG/1.1/DTD/svg11.dtd">
<!-- Creator: CorelDRAW -->
<svg xmlns="http://www.w3.org/2000/svg" xml:space="preserve" width="180mm" height="92.891mm" version="1.1" style="shape-rendering:geometricPrecision; text-rendering:geometricPrecision; image-rendering:optimizeQuality; fill-rule:evenodd; clip-rule:evenodd"
viewBox="0 0 18000 9289.1"
 xmlns:xlink="http://www.w3.org/1999/xlink"
 xmlns:xodm="http://www.corel.com/coreldraw/odm/2003">
 <defs>
  <style type="text/css">
   <![CDATA[
    .fil1 {fill:#9C9C9C}
    .fil0 {fill:#FEFEFE}
    .fil4 {fill:#05B9BE;fill-rule:nonzero}
    .fil7 {fill:#1C556E;fill-rule:nonzero}
    .fil5 {fill:#211E22;fill-rule:nonzero}
    .fil6 {fill:#92241F;fill-rule:nonzero}
    .fil2 {fill:#9C9C9C;fill-rule:nonzero}
    .fil3 {fill:#F7C90E;fill-rule:nonzero}
   ]]>
  </style>
 </defs>
 <g id="Layer_x0020_1">
  <metadata id="CorelCorpID_0Corel-Layer"/>
  <g id="_2023317394256">
   <polygon class="fil0" points="-0.02,-0.01 17999.98,-0.01 17999.98,9289.11 -0.02,9289.11 "/>
   <path class="fil1" d="M544.41 545.23l16910.94 0 0 8198.21 -16910.94 0 0 -8198.21zm-236.92 -245.89l17384.98 0 0 8690.14 -17384.98 0 0 -8690.14z"/>
   <path class="fil2" d="M16996.39 798.63c60.51,0 115.48,24.6 155.2,64.33 39.79,39.77 64.38,94.74 64.38,155.25 0,60.52 -24.59,115.47 -64.32,155.18 -39.78,39.79 -94.75,64.39 -155.26,64.39 -60.51,0 -115.46,-24.6 -155.18,-64.33 -39.79,-39.77 -64.38,-94.72 -64.38,-155.24 0,-60.51 24.59,-115.48 64.33,-155.19 39.77,-39.79 94.72,-64.39 155.23,-64.39zm134.44 85.13c-34.35,-34.37 -81.91,-55.64 -134.44,-55.64 -52.53,0 -100.07,21.27 -134.39,55.62 -34.41,34.39 -55.68,81.94 -55.68,134.47 0,52.52 21.27,100.07 55.62,134.4 34.38,34.4 81.94,55.68 134.45,55.68 52.53,0 100.09,-21.28 134.42,-55.62 34.4,-34.39 55.67,-81.92 55.67,-134.46 0,-52.53 -21.27,-100.08 -55.65,-134.45z"/>
   <path class="fil2" d="M16933.37 930.36c0,-5.08 1.07,-8.84 3.22,-11.28 2.14,-2.44 6.05,-3.66 11.71,-3.66l67.11 0c9.37,0 17.82,1.41 25.34,4.25 7.52,2.83 14.01,6.83 19.48,12.01 5.47,5.18 9.67,11.28 12.61,18.31 2.93,7.04 4.39,14.75 4.39,23.15 0,11.73 -2.93,22.03 -8.79,30.92 -5.86,8.89 -13.97,15.29 -24.32,19.19l0 1.18c8.01,2.54 13.77,6.3 17.29,11.28 3.51,4.98 6.25,11.09 8.2,18.31l17 61.84c0.39,0.97 0.44,2.1 0.14,3.37 -0.29,1.27 -1.51,1.9 -3.66,1.9l-19.34 0c-0.98,0 -2,-0.2 -3.08,-0.59 -1.07,-0.39 -1.8,-1.46 -2.19,-3.22l-15.54 -55.97c-1.56,-5.67 -3.61,-10.35 -6.15,-14.07 -2.54,-3.71 -5.52,-6.64 -8.94,-8.79 -3.42,-2.15 -7.21,-3.61 -11.42,-4.39 -4.2,-0.78 -8.74,-1.18 -13.62,-1.18l-41.91 0 0 83.23c0,2.15 -0.39,3.51 -1.17,4.1 -0.78,0.59 -2.25,0.88 -4.39,0.88l-16.41 0c-1.95,0 -3.36,-0.29 -4.24,-0.88 -0.88,-0.59 -1.32,-1.95 -1.32,-4.1l0 -185.79zm116.9 43.96c0,-3.91 -0.59,-7.87 -1.76,-11.87 -1.17,-4.01 -3.22,-7.67 -6.15,-10.99 -2.93,-3.32 -6.84,-6.01 -11.72,-8.06 -4.89,-2.05 -11.03,-3.08 -18.45,-3.08l-50.99 0 0 69.16 48.93 0c7.04,0 13.08,-0.93 18.16,-2.78 5.08,-1.86 9.23,-4.4 12.46,-7.62 3.22,-3.22 5.61,-6.94 7.18,-11.14 1.56,-4.2 2.34,-8.74 2.34,-13.62z"/>
   <polygon class="fil3" points="5226.71,1242.37 4481.6,2988.24 5103.3,2977.05 5103.3,7388.47 4590.48,7388.47 4590.48,8032.73 5103.3,8032.73 5809.29,8032.73 6142.56,8032.73 6142.56,7388.47 5809.29,7388.47 5809.29,1242.37 "/>
   <polygon class="fil4" points="1344.19,1242.37 1344.19,4421.07 2057.02,4421.07 2057.02,3070.23 2999.75,3070.23 3833.09,4421.07 4683.91,4421.07 3591.72,2713.92 4609.12,1242.37 3781.3,1242.37 2982.5,2414.97 2057.02,2414.97 2057.02,1242.37 "/>
   <path class="fil5" d="M1589.85 5947.49l574.22 0 0 -803.92 -803.94 0 0 803.92 229.72 0zm-114.84 -229.73l0 -459.37 574.22 0 0 574.26 -574.22 0 0 -114.89z"/>
   <polygon class="fil5" points="1704.67,6636.57 1704.67,6521.75 1589.85,6521.75 1589.85,6636.57 1475.01,6636.57 1475.01,6521.75 1589.85,6521.75 1589.85,6292.03 1475.01,6292.03 1475.01,6062.33 1360.13,6062.33 1360.13,7095.95 1475.01,7095.95 1475.01,6751.41 1589.85,6751.41 1589.85,6866.25 1819.51,6866.25 1819.51,6751.41 1704.67,6751.41 "/>
   <path class="fil5" d="M1934.39 7210.79l-574.26 0 0 803.92 803.94 0 0 -803.92 -229.68 0zm114.84 229.72l0 459.38 -574.22 0 0 -574.2 574.22 0 0 114.82z"/>
   <polygon class="fil5" points="1819.51,5717.76 1934.39,5717.76 1934.39,5373.27 1589.85,5373.27 1589.85,5717.76 "/>
   <polygon class="fil5" points="1704.67,6177.21 2164.07,6177.21 2164.07,6062.33 1589.85,6062.33 1589.85,6292.03 1704.67,6292.03 "/>
   <polygon class="fil5" points="1819.51,7095.95 1819.51,6981.13 1589.85,6981.13 1589.85,7095.95 "/>
   <polygon class="fil5" points="1704.67,7440.51 1589.85,7440.51 1589.85,7785.07 1934.39,7785.07 1934.39,7440.51 "/>
   <polygon class="fil5" points="2164.07,6866.25 2164.07,6751.41 2049.23,6751.41 2049.23,6636.57 2393.77,6636.57 2393.77,6177.21 2278.95,6177.21 2278.95,6406.87 2164.07,6406.87 2164.07,6521.75 2049.23,6521.75 2049.23,6406.87 2164.07,6406.87 2164.07,6292.03 1704.67,6292.03 1704.67,6406.87 1934.39,6406.87 1934.39,6521.75 1819.51,6521.75 1819.51,6751.41 1934.39,6751.41 1934.39,6981.13 2049.23,6981.13 2049.23,6866.25 "/>
   <polygon class="fil5" points="2278.95,6866.25 2164.07,6866.25 2164.07,6981.13 2049.23,6981.13 2049.23,7095.95 2278.95,7095.95 "/>
   <polygon class="fil5" points="2623.49,6177.21 2623.49,6062.33 2508.61,6062.33 2508.61,5947.49 2393.77,5947.49 2393.77,5717.76 2508.61,5717.76 2508.61,5488.11 2393.77,5488.11 2393.77,5373.27 2278.95,5373.27 2278.95,6062.33 2393.77,6062.33 2393.77,6177.21 "/>
   <polygon class="fil5" points="2393.77,6636.57 2393.77,6751.41 2278.95,6751.41 2278.95,6866.25 2508.61,6866.25 2508.61,6751.41 2623.49,6751.41 2623.49,6636.57 "/>
   <polygon class="fil5" points="2623.49,6981.13 2623.49,6866.25 2508.61,6866.25 2508.61,7095.95 2278.95,7095.95 2278.95,7210.79 2623.49,7210.79 "/>
   <polygon class="fil5" points="2508.61,7440.51 2393.77,7440.51 2393.77,7325.69 2278.95,7325.69 2278.95,7785.07 2393.77,7785.07 2393.77,7670.23 2508.61,7670.23 2508.61,7785.07 2393.77,7785.07 2393.77,7899.89 2623.49,7899.89 2623.49,7555.35 2508.61,7555.35 "/>
   <polygon class="fil5" points="2278.95,8014.71 2393.78,8014.71 2393.78,7899.88 2278.95,7899.88 "/>
   <polygon class="fil5" points="2508.61,5258.39 2623.49,5258.39 2623.49,5488.11 2853.15,5488.11 2853.15,5373.27 2738.33,5373.27 2738.33,5258.39 2853.15,5258.39 2853.15,5373.27 3082.87,5373.27 3082.87,5488.11 2853.15,5488.11 2853.15,5602.94 3197.71,5602.94 3197.71,5488.11 3312.53,5488.11 3312.53,5258.39 2967.99,5258.39 2967.99,5143.57 2393.77,5143.57 2393.77,5373.27 2508.61,5373.27 "/>
   <polygon class="fil5" points="2623.49,5832.65 2738.33,5832.65 2738.33,5717.76 2508.61,5717.76 2508.61,5947.49 2623.49,5947.49 "/>
   <polygon class="fil5" points="2967.99,5947.49 2967.99,6062.33 2738.33,6062.33 2738.33,6177.21 2853.15,6177.21 2853.15,6292.03 2738.33,6292.03 2738.33,6177.21 2623.49,6177.21 2623.49,6292.03 2508.61,6292.03 2508.61,6521.75 2623.49,6521.75 2623.49,6406.87 2967.99,6406.87 2967.99,6521.75 2853.15,6521.75 2853.15,6636.57 2738.33,6636.57 2738.33,6751.41 2967.99,6751.41 2967.99,6636.57 3082.87,6636.57 3082.87,6406.87 3197.71,6406.87 3197.71,6521.75 3312.53,6521.75 3312.53,6636.57 3542.25,6636.57 3542.25,6406.87 3312.53,6406.87 3312.53,6177.21 3197.71,6177.21 3197.71,6292.03 2967.99,6292.03 2967.99,6177.21 3082.87,6177.21 3082.87,5832.65 2967.99,5832.65 "/>
   <path class="fil5" d="M3771.93 6751.41l-114.84 0 0 -114.84 -114.84 0 0 114.84 -114.88 0 0 114.84 114.88 0 0 114.88 -229.72 0 0 -344.56 -114.82 0 0 114.84 -229.72 0 0 229.72 229.72 0 0 114.82 -114.84 0 0 114.84 114.84 0 0 114.9 -114.84 0 0 -114.9 -114.88 0 0 -229.66 -114.84 0 0 -114.88 -114.82 0 0 229.7 114.82 0 0 114.84 -229.66 0 0 114.9 -114.88 0 0 114.82 114.88 0 0 114.84 114.84 0 0 -229.66 229.66 0 0 114.82 114.88 0 0 229.72 -114.88 0 0 -114.88 -229.66 0 0 114.88 114.82 0 0 114.84 -114.82 0 0 229.64 114.82 0 0 -114.82 114.84 0 0 -114.82 229.72 0 0 -114.84 344.54 0 0 -114.88 114.84 0 0 114.88 114.84 0 0 114.84 -574.22 0 0 114.82 114.82 0 0 114.82 918.82 0 0 -574.2 -344.54 0 0 114.84 -114.88 0 0 -114.84 114.88 0 0 -114.82 -114.88 0 0 -114.9 114.88 0 0 -114.84 -114.88 0 0 -229.7 114.88 0 0 -229.68 -114.88 0 0 114.84zm-114.84 459.38l0 229.72 -344.56 0 0 -344.56 344.56 0 0 114.84zm229.72 574.28l114.82 0 0 -114.84 114.84 0 0 229.66 -229.66 0 0 -114.82z"/>
   <polygon class="fil5" points="2623.49,6636.57 2738.33,6636.57 2738.33,6521.75 2623.49,6521.75 "/>
   <polygon class="fil5" points="2738.33,5947.49 2853.16,5947.49 2853.16,5832.65 2738.33,5832.65 "/>
   <polygon class="fil5" points="2853.15,5832.65 2967.99,5832.65 2967.99,5717.76 2853.15,5717.76 "/>
   <polygon class="fil5" points="2967.99,8014.71 3082.88,8014.71 3082.88,7899.88 2967.99,7899.88 "/>
   <polygon class="fil5" points="3082.87,5832.65 3197.69,5832.65 3197.69,5717.76 3082.87,5717.76 "/>
   <polygon class="fil5" points="3197.71,5717.76 3312.55,5717.76 3312.55,5602.94 3197.71,5602.94 "/>
   <polygon class="fil5" points="3197.71,6062.33 3312.53,6062.33 3312.53,5832.65 3197.71,5832.65 "/>
   <path class="fil5" d="M4116.47 5143.57l-689.1 0 0 803.92 803.98 0 0 -803.92 -114.88 0zm0 229.7l0 459.38 -574.22 0 0 -574.26 574.22 0 0 114.88z"/>
   <polygon class="fil5" points="3657.09,6521.75 3657.09,6636.57 3771.93,6636.57 3771.93,6406.87 3886.81,6406.87 3886.81,6292.03 3657.09,6292.03 3657.09,6177.21 4001.63,6177.21 4001.63,6062.33 3427.37,6062.33 3427.37,6177.21 3542.25,6177.21 3542.25,6406.87 3657.09,6406.87 "/>
   <polygon class="fil5" points="3427.37,7325.69 3542.26,7325.69 3542.26,7210.79 3427.37,7210.79 "/>
   <polygon class="fil5" points="3771.93,5373.27 3657.09,5373.27 3657.09,5717.76 4001.63,5717.76 4001.63,5373.27 "/>
   <polygon class="fil5" points="4116.47,6177.21 4001.63,6177.21 4001.63,6406.87 4116.47,6406.87 4116.47,6521.75 3886.81,6521.75 3886.81,6636.57 4001.63,6636.57 4001.63,6866.25 4116.47,6866.25 4116.47,6981.13 4231.35,6981.13 4231.35,6751.41 4116.47,6751.41 4116.47,6636.57 4231.35,6636.57 4231.35,6292.03 4116.47,6292.03 "/>
   <polygon class="fil5" points="3886.81,7095.95 4001.64,7095.95 4001.64,6981.13 3886.81,6981.13 "/>
   <polygon class="fil5" points="4001.63,7325.69 4231.35,7325.69 4231.35,7210.79 3886.81,7210.79 3886.81,7325.69 "/>
   <path class="fil6" d="M7115.1 3093.26l1477.12 0c207.03,0 350.6,132.17 350.6,339.23 0,195.35 -137.82,339.03 -367.68,339.03l-1460.04 0 0 -678.26zm0 -1207.18l1293.28 0c241.42,0 316.04,155.27 316.04,293.21 0,143.73 -103.41,287.42 -258.63,287.42l-1350.69 0 0 -580.63zm-718.59 -643.76l0 3178.73 2201.63 0c603.3,0 1045.99,-442.67 1045.99,-988.56 0,-390.9 -172.5,-649.7 -465.66,-799.03 166.85,-114.94 247.31,-310.44 247.31,-540.32 0,-517.33 -408.18,-850.82 -983.01,-850.82l-2046.26 0z"/>
   <polygon class="fil2" points="10121.25,1242.37 10121.25,4421.07 13087.2,4421.07 13087.2,3759.89 10839.87,3759.89 10839.87,3127.64 12788.25,3127.64 12788.25,2478.27 10839.87,2478.27 10839.87,1891.9 13006.6,1891.9 13006.6,1242.37 "/>
   <path class="fil7" d="M14340.11 1897.64l1126.72 0c367.7,0 620.58,224.31 620.58,592.14 0,367.82 -252.88,568.94 -620.58,568.94l-1126.72 0 0 -1161.08zm-718.55 -655.27l0 3178.7 718.55 0 0 -707.06 1184.08 0 373.67 707.06 781.69 0 -488.53 -873.64c373.47,-201.29 614.99,-569.12 614.99,-1057.65 0,-747.34 -563.35,-1247.41 -1310.59,-1247.41l-1873.86 0z"/>
   <path class="fil5" d="M9573.95 6512.01c0,-956.77 -721.79,-1594.63 -1575.63,-1594.63 -853.83,0 -1575.62,637.86 -1575.62,1594.63 0,956.95 721.79,1594.81 1575.62,1594.81 853.84,0 1575.63,-637.86 1575.63,-1594.81zm-2515.76 0c0,-626.97 411.62,-1006.48 940.13,-1006.48 528.52,0 940.34,379.51 940.34,1006.48 0,627 -411.82,1006.33 -940.34,1006.33 -528.51,0 -940.13,-379.33 -940.13,-1006.33z"/>
   <polygon class="fil5" points="9946.72,4991.47 9946.72,8032.68 10623.08,8032.68 10623.08,5981.34 12443.47,8032.68 13097.97,8032.68 13097.97,4991.47 12416.14,4991.47 12416.14,7037.24 10595.8,4991.47 "/>
   <polygon class="fil5" points="13684.32,4991.47 13684.32,8032.68 16522.06,8032.68 16522.06,7400.11 14371.87,7400.11 14371.87,6795.15 16236.22,6795.15 16236.22,6173.8 14371.87,6173.8 14371.87,5612.82 16445.04,5612.82 16445.04,4991.47 "/>
  </g>
 </g>
</svg>
